<!-- Generated by IcoMoon.io -->
<svg version="1.1" xmlns="http://www.w3.org/2000/svg" width="60" height="60" viewBox="0 0 512 512">
<title></title>
<g id="icomoon-ignore">
</g>
<path d="M256.14 59.226c64.137 0 71.733 0.282 96.957 1.407 23.442 1.031 36.102 4.969 44.54 8.252 11.159 4.314 19.223 9.564 27.567 17.91 8.44 8.439 13.596 16.41 18.003 27.567 3.282 8.439 7.22 21.191 8.252 44.54 1.125 25.317 1.407 32.913 1.407 96.957s-0.281 71.733-1.407 96.957c-1.031 23.442-4.969 36.102-8.252 44.54-4.313 11.159-9.565 19.223-17.909 27.567-8.44 8.44-16.409 13.596-27.567 18.005-8.44 3.282-21.19 7.22-44.54 8.252-25.317 1.125-32.913 1.407-96.957 1.407s-71.733-0.282-96.957-1.407c-23.442-1.032-36.1-4.969-44.54-8.252-11.159-4.313-19.222-9.565-27.567-17.909-8.439-8.44-13.597-16.409-18.003-27.567-3.282-8.44-7.22-21.19-8.252-44.54-1.125-25.317-1.407-32.913-1.407-96.957s0.281-71.733 1.407-96.957c1.032-23.442 4.969-36.1 8.251-44.54 4.314-11.159 9.564-19.222 17.91-27.567 8.439-8.439 16.41-13.597 27.567-18.005 8.439-3.282 21.192-7.22 44.54-8.252 25.224-1.125 32.819-1.407 96.957-1.407zM256.14 15.999c-65.169 0-73.327 0.282-98.925 1.407-25.505 1.125-43.040 5.251-58.23 11.159-15.847 6.189-29.255 14.347-42.571 27.756-13.409 13.316-21.567 26.724-27.756 42.477-5.907 15.284-10.033 32.725-11.159 58.23-1.125 25.692-1.407 33.851-1.407 99.019s0.28 73.327 1.407 98.925c1.125 25.505 5.251 43.039 11.159 58.23 6.189 15.847 14.347 29.255 27.756 42.571 13.316 13.315 26.724 21.565 42.477 27.662 15.284 5.907 32.725 10.033 58.23 11.159 25.599 1.125 33.757 1.407 98.925 1.407s73.327-0.281 98.925-1.407c25.505-1.125 43.039-5.251 58.23-11.159 15.755-6.095 29.162-14.346 42.477-27.662s21.565-26.724 27.662-42.477c5.907-15.284 10.033-32.726 11.159-58.23 1.125-25.599 1.407-33.757 1.407-98.925s-0.281-73.327-1.407-98.925c-1.125-25.505-5.251-43.040-11.159-58.23-5.907-15.942-14.065-29.35-27.474-42.664-13.315-13.316-26.724-21.566-42.477-27.662-15.284-5.907-32.726-10.033-58.23-11.159-25.692-1.22-33.851-1.501-99.019-1.501v0z"></path>
<path d="M256.14 132.741c-68.076 0-123.305 55.23-123.305 123.305s55.23 123.305 123.305 123.305 123.305-55.229 123.305-123.305c0-68.076-55.229-123.305-123.305-123.305zM256.14 336.031c-44.165 0-79.984-35.82-79.984-79.984s35.82-79.984 79.984-79.984c44.164 0 79.985 35.82 79.985 79.984s-35.82 79.985-79.985 79.985z"></path>
<path d="M413.108 127.865c0 15.898-12.888 28.787-28.787 28.787s-28.787-12.889-28.787-28.787c0-15.898 12.888-28.787 28.787-28.787s28.787 12.889 28.787 28.787z"></path>
</svg>
